<svg width="123" height="32" viewBox="0 0 123 32" fill="none" xmlns="http://www.w3.org/2000/svg">
<g clip-path="url(#clip0_25_1693)">
<path fill-rule="evenodd" clip-rule="evenodd" d="M16 32C24.8366 32 32 24.8366 32 16C32 7.16344 24.8366 0 16 0C7.16344 0 0 7.16344 0 16C0 24.8366 7.16344 32 16 32ZM7.17174 5.65532C12.8979 0.780795 21.462 1.4592 26.3342 7.16291H5.66486C6.11692 6.63525 6.61922 6.1076 7.17174 5.65532ZM29.549 14.8766H19.8798C19.2268 14.8514 18.5487 14.9268 17.9208 15.0775C17.4688 15.2284 17.0418 15.4545 16.6651 15.7309L16.6149 15.7559L16.6087 15.76C14.8777 16.8895 13.0712 18.0683 10.939 18.6455C9.60789 18.9973 8.2517 19.0224 6.94573 19.0224H6.51878H2.75157C3.05295 20.3289 3.55524 21.6104 4.23335 22.7663H27.7909C28.9965 20.7059 29.6243 18.344 29.5993 15.957C29.5993 15.6272 29.5772 15.2974 29.5537 14.947L29.549 14.8766ZM24.7521 18.9721C24.7521 20.2787 23.6722 21.3591 22.3662 21.3591C21.0602 21.3591 19.9803 20.2787 19.9803 18.9721C19.9803 17.6656 21.0602 16.5852 22.3662 16.5852C23.6722 16.5852 24.7521 17.6656 24.7521 18.9721ZM26.3342 24.8269C21.462 30.5305 12.8728 31.234 7.17174 26.3344C6.61922 25.8569 6.11692 25.3544 5.66486 24.8269H26.3342ZM2.4 16.0075C2.4 16.3341 2.42511 16.6859 2.45023 17.0125H6.51881C7.82479 17.0125 9.18098 17.0125 10.4116 16.6859C12.2199 16.2084 13.8272 15.1782 15.5099 14.0726L15.5601 14.0476C16.1126 13.6455 16.7154 13.344 17.3684 13.143C18.1972 12.9169 19.051 12.8415 19.905 12.8415H29.2728C28.9714 11.56 28.4942 10.3288 27.8161 9.19815H4.20827C3.02787 11.2585 2.4 13.6204 2.4 16.0075Z" fill="#64FFDA"/>
</g>
<path d="M49.488 19C49.488 19.64 49.408 20.216 49.248 20.728C49.088 21.24 48.8533 21.6747 48.544 22.032C48.24 22.384 47.8587 22.656 47.4 22.848C46.9467 23.0347 46.424 23.128 45.832 23.128C45.2987 23.128 44.7493 23.0533 44.184 22.904L44.28 21.896C44.2907 21.8 44.3253 21.7227 44.384 21.664C44.448 21.6 44.5413 21.568 44.664 21.568C44.7547 21.568 44.8773 21.592 45.032 21.64C45.192 21.6827 45.4 21.704 45.656 21.704C45.9973 21.704 46.2987 21.6533 46.56 21.552C46.8267 21.4507 47.0507 21.2933 47.232 21.08C47.4133 20.8613 47.5493 20.584 47.64 20.248C47.736 19.912 47.784 19.5093 47.784 19.04V11.512H49.488V19ZM58.4341 14.872V23H57.4981C57.2848 23 57.1461 22.896 57.0821 22.688L56.9701 21.872C56.7941 22.0587 56.6101 22.2293 56.4181 22.384C56.2261 22.5387 56.0208 22.672 55.8021 22.784C55.5835 22.8907 55.3515 22.9733 55.1061 23.032C54.8608 23.096 54.5968 23.128 54.3141 23.128C53.8661 23.128 53.4715 23.0533 53.1301 22.904C52.7941 22.7547 52.5115 22.5467 52.2821 22.28C52.0528 22.008 51.8795 21.6827 51.7621 21.304C51.6448 20.9253 51.5861 20.5067 51.5861 20.048V14.872H53.1541V20.048C53.1541 20.6293 53.2875 21.0827 53.5541 21.408C53.8208 21.728 54.2288 21.888 54.7781 21.888C55.1781 21.888 55.5515 21.7947 55.8981 21.608C56.2448 21.416 56.5701 21.1547 56.8741 20.824V14.872H58.4341ZM62.1716 21C62.4276 21.336 62.7023 21.5707 62.9956 21.704C63.2943 21.8373 63.6276 21.904 63.9956 21.904C64.7103 21.904 65.2623 21.648 65.6516 21.136C66.0463 20.6187 66.2436 19.8667 66.2436 18.88C66.2436 18.3627 66.1983 17.9227 66.1076 17.56C66.0223 17.192 65.8943 16.8933 65.7236 16.664C65.5583 16.4293 65.353 16.2587 65.1076 16.152C64.8623 16.04 64.585 15.984 64.2756 15.984C63.8223 15.984 63.4276 16.0853 63.0916 16.288C62.761 16.4907 62.4543 16.7787 62.1716 17.152V21ZM62.0916 16.088C62.2623 15.8853 62.4436 15.7013 62.6356 15.536C62.833 15.3653 63.0436 15.2213 63.2676 15.104C63.4916 14.9813 63.729 14.888 63.9796 14.824C64.2356 14.7547 64.5076 14.72 64.7956 14.72C65.2596 14.72 65.6783 14.8107 66.0516 14.992C66.4303 15.1733 66.753 15.44 67.0196 15.792C67.2863 16.144 67.4916 16.5787 67.6356 17.096C67.785 17.6133 67.8596 18.208 67.8596 18.88C67.8596 19.4827 67.777 20.0427 67.6116 20.56C67.4516 21.072 67.2196 21.5173 66.9156 21.896C66.617 22.2747 66.249 22.5733 65.8116 22.792C65.3796 23.0053 64.8916 23.112 64.3476 23.112C63.8623 23.112 63.4463 23.032 63.0996 22.872C62.753 22.712 62.4436 22.488 62.1716 22.2V25.728H60.6116V14.872H61.5476C61.7663 14.872 61.9023 14.976 61.9556 15.184L62.0916 16.088ZM71.2436 14.872V23H69.6836V14.872H71.2436ZM71.5396 12.36C71.5396 12.504 71.5103 12.6427 71.4516 12.776C71.393 12.904 71.313 13.0187 71.2116 13.12C71.1156 13.216 71.001 13.2933 70.8676 13.352C70.7343 13.4053 70.5956 13.432 70.4516 13.432C70.3076 13.432 70.1716 13.4053 70.0436 13.352C69.9156 13.2933 69.801 13.216 69.6996 13.12C69.6036 13.0187 69.5263 12.904 69.4676 12.776C69.4143 12.6427 69.3876 12.504 69.3876 12.36C69.3876 12.2107 69.4143 12.072 69.4676 11.944C69.5263 11.8107 69.6036 11.696 69.6996 11.6C69.801 11.4987 69.9156 11.4213 70.0436 11.368C70.1716 11.3093 70.3076 11.28 70.4516 11.28C70.5956 11.28 70.7343 11.3093 70.8676 11.368C71.001 11.4213 71.1156 11.4987 71.2116 11.6C71.313 11.696 71.393 11.8107 71.4516 11.944C71.5103 12.072 71.5396 12.2107 71.5396 12.36ZM76.0463 23.128C75.3903 23.128 74.8836 22.944 74.5263 22.576C74.1743 22.208 73.9983 21.6827 73.9983 21V16.136H73.0543C72.9636 16.136 72.8863 16.1093 72.8223 16.056C72.7636 15.9973 72.7343 15.912 72.7343 15.8V15.168L74.0543 14.984L74.4062 12.56C74.4276 12.4693 74.4676 12.4 74.5263 12.352C74.5903 12.2987 74.6703 12.272 74.7663 12.272H75.5583V15H77.8623V16.136H75.5583V20.896C75.5583 21.216 75.6356 21.456 75.7903 21.616C75.9503 21.7707 76.1529 21.848 76.3983 21.848C76.5423 21.848 76.6649 21.8293 76.7663 21.792C76.8729 21.7547 76.9636 21.7147 77.0383 21.672C77.1129 21.624 77.1769 21.5813 77.2303 21.544C77.2836 21.5067 77.3316 21.488 77.3743 21.488C77.4276 21.488 77.4676 21.5013 77.4943 21.528C77.5263 21.5493 77.5583 21.5867 77.5903 21.64L78.0543 22.392C77.7983 22.6267 77.4943 22.808 77.1423 22.936C76.7903 23.064 76.4249 23.128 76.0463 23.128ZM84.6363 18.032C84.6363 17.7227 84.5909 17.4373 84.5003 17.176C84.4149 16.9147 84.2869 16.688 84.1163 16.496C83.9456 16.304 83.7376 16.1547 83.4923 16.048C83.2469 15.9413 82.9643 15.888 82.6443 15.888C81.9883 15.888 81.4709 16.0773 81.0923 16.456C80.7189 16.8347 80.4816 17.36 80.3803 18.032H84.6363ZM85.9243 21.84C85.7323 22.064 85.5109 22.2587 85.2603 22.424C85.0096 22.584 84.7429 22.7147 84.4603 22.816C84.1776 22.9173 83.8843 22.992 83.5803 23.04C83.2816 23.088 82.9856 23.112 82.6923 23.112C82.1323 23.112 81.6123 23.0187 81.1323 22.832C80.6576 22.64 80.2443 22.3627 79.8923 22C79.5456 21.632 79.2736 21.1787 79.0763 20.64C78.8843 20.096 78.7883 19.472 78.7883 18.768C78.7883 18.2027 78.8763 17.6773 79.0523 17.192C79.2283 16.7013 79.4789 16.2747 79.8043 15.912C80.1349 15.5493 80.5376 15.264 81.0123 15.056C81.4869 14.848 82.0203 14.744 82.6123 14.744C83.1083 14.744 83.5643 14.8267 83.9803 14.992C84.4016 15.152 84.7643 15.3867 85.0683 15.696C85.3723 16.0053 85.6096 16.3867 85.7803 16.84C85.9563 17.2933 86.0443 17.8107 86.0443 18.392C86.0443 18.632 86.0176 18.7947 85.9643 18.88C85.9109 18.96 85.8123 19 85.6683 19H80.3403C80.3563 19.4853 80.4256 19.9093 80.5483 20.272C80.6709 20.6293 80.8389 20.928 81.0523 21.168C81.2709 21.408 81.5296 21.5867 81.8283 21.704C82.1269 21.8213 82.4603 21.88 82.8283 21.88C83.1749 21.88 83.4736 21.84 83.7243 21.76C83.9803 21.68 84.1989 21.5947 84.3803 21.504C84.5669 21.408 84.7216 21.32 84.8443 21.24C84.9723 21.16 85.0843 21.12 85.1803 21.12C85.3083 21.12 85.4069 21.168 85.4763 21.264L85.9243 21.84ZM89.193 16.432C89.4543 15.8987 89.769 15.48 90.137 15.176C90.505 14.872 90.9477 14.72 91.465 14.72C91.641 14.72 91.8063 14.7413 91.961 14.784C92.121 14.8213 92.2597 14.88 92.377 14.96L92.273 16.136C92.2357 16.28 92.1477 16.352 92.009 16.352C91.9343 16.352 91.8223 16.3387 91.673 16.312C91.5237 16.28 91.3637 16.264 91.193 16.264C90.9423 16.264 90.721 16.3013 90.529 16.376C90.337 16.4453 90.1637 16.552 90.009 16.696C89.8597 16.8347 89.7263 17.008 89.609 17.216C89.4917 17.4187 89.3823 17.6507 89.281 17.912V23H87.721V14.872H88.617C88.7877 14.872 88.9023 14.904 88.961 14.968C89.025 15.0267 89.0703 15.1333 89.097 15.288L89.193 16.432ZM104.604 17.256C104.604 18.1147 104.466 18.904 104.188 19.624C103.916 20.3387 103.53 20.9573 103.028 21.48C102.527 21.9973 101.927 22.4 101.228 22.688C100.53 22.976 99.7537 23.12 98.9004 23.12C98.0524 23.12 97.2764 22.976 96.5724 22.688C95.8737 22.4 95.2737 21.9973 94.7724 21.48C94.2764 20.9573 93.8897 20.3387 93.6124 19.624C93.335 18.904 93.1964 18.1147 93.1964 17.256C93.1964 16.4027 93.335 15.616 93.6124 14.896C93.8897 14.176 94.2764 13.5573 94.7724 13.04C95.2737 12.5173 95.8737 12.112 96.5724 11.824C97.2764 11.5307 98.0524 11.384 98.9004 11.384C99.7537 11.384 100.53 11.5307 101.228 11.824C101.927 12.112 102.527 12.5173 103.028 13.04C103.53 13.5573 103.916 14.176 104.188 14.896C104.466 15.616 104.604 16.4027 104.604 17.256ZM102.86 17.256C102.86 16.5733 102.767 15.96 102.58 15.416C102.394 14.872 102.127 14.4107 101.78 14.032C101.439 13.6533 101.023 13.3627 100.532 13.16C100.047 12.9573 99.503 12.856 98.9004 12.856C98.2977 12.856 97.751 12.9573 97.2604 13.16C96.775 13.3627 96.359 13.6533 96.0124 14.032C95.6657 14.4107 95.399 14.872 95.2124 15.416C95.0257 15.96 94.9324 16.5733 94.9324 17.256C94.9324 17.944 95.0257 18.56 95.2124 19.104C95.399 19.6427 95.6657 20.1013 96.0124 20.48C96.359 20.8587 96.775 21.1493 97.2604 21.352C97.751 21.5493 98.2977 21.648 98.9004 21.648C99.503 21.648 100.047 21.5493 100.532 21.352C101.023 21.1493 101.439 20.8587 101.78 20.48C102.127 20.1013 102.394 19.6427 102.58 19.104C102.767 18.56 102.86 17.944 102.86 17.256ZM107.732 16C107.908 15.8133 108.092 15.6427 108.284 15.488C108.476 15.3333 108.679 15.2027 108.892 15.096C109.111 14.984 109.343 14.8987 109.588 14.84C109.839 14.776 110.105 14.744 110.388 14.744C110.836 14.744 111.228 14.8187 111.564 14.968C111.905 15.1173 112.191 15.328 112.42 15.6C112.649 15.8667 112.823 16.1893 112.94 16.568C113.057 16.9467 113.116 17.3653 113.116 17.824V23H111.548V17.824C111.548 17.2427 111.415 16.792 111.148 16.472C110.881 16.1467 110.473 15.984 109.924 15.984C109.524 15.984 109.148 16.08 108.796 16.272C108.449 16.4587 108.127 16.7147 107.828 17.04V23H106.268V14.872H107.204C107.423 14.872 107.559 14.976 107.612 15.184L107.732 16ZM120.605 18.032C120.605 17.7227 120.56 17.4373 120.469 17.176C120.384 16.9147 120.256 16.688 120.085 16.496C119.914 16.304 119.706 16.1547 119.461 16.048C119.216 15.9413 118.933 15.888 118.613 15.888C117.957 15.888 117.44 16.0773 117.061 16.456C116.688 16.8347 116.45 17.36 116.349 18.032H120.605ZM121.893 21.84C121.701 22.064 121.48 22.2587 121.229 22.424C120.978 22.584 120.712 22.7147 120.429 22.816C120.146 22.9173 119.853 22.992 119.549 23.04C119.25 23.088 118.954 23.112 118.661 23.112C118.101 23.112 117.581 23.0187 117.101 22.832C116.626 22.64 116.213 22.3627 115.861 22C115.514 21.632 115.242 21.1787 115.045 20.64C114.853 20.096 114.757 19.472 114.757 18.768C114.757 18.2027 114.845 17.6773 115.021 17.192C115.197 16.7013 115.448 16.2747 115.773 15.912C116.104 15.5493 116.506 15.264 116.981 15.056C117.456 14.848 117.989 14.744 118.581 14.744C119.077 14.744 119.533 14.8267 119.949 14.992C120.37 15.152 120.733 15.3867 121.037 15.696C121.341 16.0053 121.578 16.3867 121.749 16.84C121.925 17.2933 122.013 17.8107 122.013 18.392C122.013 18.632 121.986 18.7947 121.933 18.88C121.88 18.96 121.781 19 121.637 19H116.309C116.325 19.4853 116.394 19.9093 116.517 20.272C116.64 20.6293 116.808 20.928 117.021 21.168C117.24 21.408 117.498 21.5867 117.797 21.704C118.096 21.8213 118.429 21.88 118.797 21.88C119.144 21.88 119.442 21.84 119.693 21.76C119.949 21.68 120.168 21.5947 120.349 21.504C120.536 21.408 120.69 21.32 120.813 21.24C120.941 21.16 121.053 21.12 121.149 21.12C121.277 21.12 121.376 21.168 121.445 21.264L121.893 21.84Z" fill="white"/>
<defs>
<clipPath id="clip0_25_1693">
<rect width="32" height="32" rx="6" fill="white"/>
</clipPath>
</defs>
</svg>
